<svg xmlns="http://www.w3.org/2000/svg" width="24" height="24" viewBox="0 0 24 24" fill="none">
  <path d="M14.1526 7.78125H16.0219C16.1213 7.78125 16.2167 7.74174 16.287 7.67142C16.3574 7.60109 16.3969 7.50571 16.3969 7.40625C16.3969 7.30679 16.3574 7.21141 16.287 7.14108C16.2167 7.07076 16.1213 7.03125 16.0219 7.03125H14.1526C14.0531 7.03125 13.9578 7.07076 13.8874 7.14108C13.8171 7.21141 13.7776 7.30679 13.7776 7.40625C13.7776 7.50571 13.8171 7.60109 13.8874 7.67142C13.9578 7.74174 14.0531 7.78125 14.1526 7.78125ZM14.1526 10.0781H18.5791C18.6785 10.0781 18.7739 10.0386 18.8443 9.96829C18.9146 9.89796 18.9541 9.80258 18.9541 9.70312C18.9541 9.60367 18.9146 9.50829 18.8443 9.43796C18.7739 9.36763 18.6785 9.32812 18.5791 9.32812H14.1526C14.0531 9.32812 13.9578 9.36763 13.8874 9.43796C13.8171 9.50829 13.7776 9.60367 13.7776 9.70312C13.7776 9.80258 13.8171 9.89796 13.8874 9.96829C13.9578 10.0386 14.0531 10.0781 14.1526 10.0781ZM14.1526 12.375H18.5791C18.6785 12.375 18.7739 12.3355 18.8443 12.2652C18.9146 12.1948 18.9541 12.0995 18.9541 12C18.9541 11.9005 18.9146 11.8052 18.8443 11.7348C18.7739 11.6645 18.6785 11.625 18.5791 11.625H14.1526C14.0531 11.625 13.9578 11.6645 13.8874 11.7348C13.8171 11.8052 13.7776 11.9005 13.7776 12C13.7776 12.0995 13.8171 12.1948 13.8874 12.2652C13.9578 12.3355 14.0531 12.375 14.1526 12.375ZM14.1526 14.6719H18.5791C18.6785 14.6719 18.7739 14.6324 18.8443 14.562C18.9146 14.4917 18.9541 14.3963 18.9541 14.2969C18.9541 14.1974 18.9146 14.102 18.8443 14.0317C18.7739 13.9614 18.6785 13.9219 18.5791 13.9219H14.1526C14.0531 13.9219 13.9578 13.9614 13.8874 14.0317C13.8171 14.102 13.7776 14.1974 13.7776 14.2969C13.7776 14.3963 13.8171 14.4917 13.8874 14.562C13.9578 14.6324 14.0531 14.6719 14.1526 14.6719ZM5.4209 7.78125H7.29004C7.3895 7.78125 7.48488 7.74174 7.55521 7.67142C7.62553 7.60109 7.66504 7.50571 7.66504 7.40625C7.66504 7.30679 7.62553 7.21141 7.55521 7.14108C7.48488 7.07076 7.3895 7.03125 7.29004 7.03125H5.4209C5.32144 7.03125 5.22606 7.07076 5.15573 7.14108C5.08541 7.21141 5.0459 7.30679 5.0459 7.40625C5.0459 7.50571 5.08541 7.60109 5.15573 7.67142C5.22606 7.74174 5.32144 7.78125 5.4209 7.78125ZM5.4209 10.0781H9.8474C9.94686 10.0781 10.0422 10.0386 10.1126 9.96829C10.1829 9.89796 10.2224 9.80258 10.2224 9.70312C10.2224 9.60367 10.1829 9.50829 10.1126 9.43796C10.0422 9.36763 9.94686 9.32812 9.8474 9.32812H5.4209C5.32144 9.32812 5.22606 9.36763 5.15573 9.43796C5.08541 9.50829 5.0459 9.60367 5.0459 9.70312C5.0459 9.80258 5.08541 9.89796 5.15573 9.96829C5.22606 10.0386 5.32144 10.0781 5.4209 10.0781ZM5.4209 12.375H9.8474C9.94686 12.375 10.0422 12.3355 10.1126 12.2652C10.1829 12.1948 10.2224 12.0995 10.2224 12C10.2224 11.9005 10.1829 11.8052 10.1126 11.7348C10.0422 11.6645 9.94686 11.625 9.8474 11.625H5.4209C5.32144 11.625 5.22606 11.6645 5.15573 11.7348C5.08541 11.8052 5.0459 11.9005 5.0459 12C5.0459 12.0995 5.08541 12.1948 5.15573 12.2652C5.22606 12.3355 5.32144 12.375 5.4209 12.375ZM5.4209 14.6719H9.8474C9.94686 14.6719 10.0422 14.6324 10.1126 14.562C10.1829 14.4917 10.2224 14.3963 10.2224 14.2969C10.2224 14.1974 10.1829 14.102 10.1126 14.0317C10.0422 13.9614 9.94686 13.9219 9.8474 13.9219H5.4209C5.32144 13.9219 5.22606 13.9614 5.15573 14.0317C5.08541 14.102 5.0459 14.1974 5.0459 14.2969C5.0459 14.3963 5.08541 14.4917 5.15573 14.562C5.22606 14.6324 5.32144 14.6719 5.4209 14.6719Z" fill="#A8B4B9" stroke="#A8B4B9" stroke-width="0.2"/>
  <path d="M22.6656 6.09375H21.1406V5.7368C21.1413 5.24932 20.9489 4.7814 20.6055 4.43542C20.2621 4.08943 19.7957 3.89355 19.3082 3.89062H14.5542C14.3399 3.89218 14.1274 3.93125 13.9266 4.00608L12.3713 4.57416C12.1315 4.66157 11.8687 4.66201 11.6287 4.57538L10.0734 4.00547C9.87253 3.93083 9.6601 3.89196 9.44578 3.89062H4.69181C4.20434 3.89355 3.73787 4.08943 3.39446 4.43542C3.05105 4.7814 2.85866 5.24932 2.85938 5.7368V6.09375H1.33439C1.23155 6.09531 1.13318 6.1361 1.05941 6.20777C0.985639 6.27944 0.94203 6.37659 0.9375 6.47934V19.7246C0.942072 19.8272 0.985719 19.9243 1.0595 19.9958C1.13329 20.0674 1.23163 20.108 1.33439 20.1094H22.6656C22.7684 20.108 22.8667 20.0674 22.9405 19.9958C23.0143 19.9243 23.0579 19.8272 23.0625 19.7246V6.47934C23.058 6.37659 23.0144 6.27944 22.9406 6.20777C22.8668 6.1361 22.7685 6.09531 22.6656 6.09375ZM14.1829 4.71094C14.3016 4.66603 14.4273 4.64224 14.5542 4.64062H19.3082C19.5968 4.64332 19.8726 4.76011 20.0755 4.96549C20.2783 5.17088 20.3916 5.44816 20.3906 5.7368V15.9057C20.3906 16.5047 19.9072 16.9688 19.3082 16.9688H14.5542C14.3395 16.9726 14.1271 17.014 13.9267 17.091L12.375 17.6672V5.35312C12.4608 5.33453 12.5453 5.30984 12.6276 5.27925L14.1829 4.71094ZM3.60938 5.7368C3.60843 5.44816 3.72174 5.17088 3.92455 4.96549C4.12735 4.76011 4.40319 4.64332 4.69181 4.64062H9.44578C9.57268 4.64223 9.69833 4.66603 9.81703 4.71094L11.3724 5.27902C11.4547 5.30968 11.5391 5.33445 11.625 5.35312V17.6672L10.0734 17.0912C9.87295 17.0141 9.66054 16.9727 9.44578 16.9688H4.69181C4.09275 16.9688 3.60938 16.5047 3.60938 15.9057V5.7368ZM22.3125 19.3594H1.6875V6.84375H2.85938V15.9057C2.85966 16.1454 2.9074 16.3826 2.99983 16.6037C3.09226 16.8248 3.22755 17.0254 3.39791 17.194C3.56826 17.3625 3.77031 17.4957 3.99239 17.5857C4.21446 17.6758 4.45218 17.721 4.69181 17.7188H9.44578C9.57307 17.7227 9.69869 17.7488 9.81703 17.7958L11.3724 18.3673C11.7772 18.5168 12.2218 18.5184 12.6276 18.3717L14.1829 17.7951C14.3013 17.7483 14.427 17.7224 14.5542 17.7188H19.3082C19.5478 17.721 19.7855 17.6758 20.0076 17.5857C20.2297 17.4957 20.4317 17.3625 20.6021 17.194C20.7724 17.0254 20.9077 16.8248 21.0002 16.6037C21.0926 16.3826 21.1403 16.1454 21.1406 15.9057V6.84375H22.3125V19.3594Z" fill="#A8B4B9" stroke="#A8B4B9" stroke-width="0.2"/>
</svg>