<svg xmlns="http://www.w3.org/2000/svg" width="20" height="20" viewBox="0 0 20 20" fill="none">
  <path d="M3.75 16.25H4.66667L14.7708 6.14584L14.3125 5.6875L13.8542 5.22917L3.75 15.3333V16.25ZM2.5 17.5V14.8333L14.75 2.58334C14.9861 2.34722 15.2812 2.23264 15.6354 2.23959C15.9896 2.24653 16.2847 2.36806 16.5208 2.60417L17.4167 3.5C17.6528 3.73611 17.7708 4.02778 17.7708 4.375C17.7708 4.72222 17.6528 5.01389 17.4167 5.25L5.16667 17.5H2.5ZM16.4583 4.35417L15.6042 3.5L16.4583 4.35417ZM14.7708 6.14584L14.3125 5.6875L13.8542 5.22917L14.7708 6.14584Z" fill="#2CA4D8"/>
</svg>