<svg xmlns="http://www.w3.org/2000/svg" width="24" height="24" viewBox="0 0 24 24" fill="none">
  <path d="M4.67774 17.4189L4.14074 19.4068C4.01043 19.8891 4.73474 20.0826 4.86468 19.6024L5.40168 17.6145C5.53105 17.1364 4.80711 16.9401 4.67774 17.4189Z" fill="#A8B4B9" stroke="#A8B4B9" stroke-width="0.2"/>
  <path d="M22.875 21.9371H1.61589L4.22383 12.3746H4.91289C4.38752 13.2988 4.71227 14.2993 5.41183 14.8978L5.01433 16.3806C4.94214 16.6526 5.18814 16.9125 5.46902 16.8411L8.00477 16.1955C8.07902 16.1833 8.15046 16.1496 8.20783 16.0926L8.79696 15.5083C9.33527 16.1381 10.2336 16.4893 11.176 16.1797C11.6404 16.9792 12.363 17.3516 13.1494 17.3516C13.8585 17.3516 14.5504 17.0083 14.97 16.4038C16.0037 16.5214 17.2774 15.8672 17.6327 15.4408C18.6505 15.8899 19.4861 16.4096 22.8703 16.4496C22.8718 16.4496 22.8733 16.4496 22.8746 16.4496C23.3678 16.4496 23.3719 15.7052 22.879 15.6996C17.9035 15.6414 17.6389 14.1699 15.2393 13.6866C15.2385 13.6864 15.2376 13.6866 15.2368 13.6864C14.3438 13.5099 11.2538 13.7833 9.90996 13.6425C9.18414 13.4677 8.69608 12.7708 8.79021 12.0514C8.79039 12.0502 8.79021 12.0491 8.79021 12.048C8.88677 11.4587 9.26046 11.0584 9.46896 11.0062C9.46896 11.0062 12.9548 10.7706 18.1345 10.2101C18.6274 10.1567 18.5464 9.41324 18.0538 9.46443L14.5026 9.84862C16.2833 8.08237 17.1816 7.1893 17.3713 7.00105C19.1788 7.46418 22.8743 8.75399 22.8743 8.75399C23.2945 8.75399 23.3959 8.16037 22.9954 8.02387C21.5828 7.54199 19.9399 6.9148 17.9897 6.38756L20.5841 3.81412C20.7565 3.6418 20.7154 3.40255 20.5793 3.27693L18.6341 1.41618C18.4877 1.27518 18.2511 1.28099 18.1103 1.42162L14.4925 5.03043C13.6498 4.69087 12.4693 4.53787 12.117 4.53787C10.4509 4.53787 8.22714 8.91974 6.92177 10.4766C6.60883 10.8495 6.04539 11.1742 5.54252 11.6246H3.93752C3.76839 11.6246 3.62027 11.7379 3.57564 11.901L0.763142 22.2135C0.69808 22.4524 0.878455 22.6871 1.12502 22.6871H22.875C23.3704 22.6871 23.3711 21.9371 22.875 21.9371ZM11.1664 15.3767C11.1662 15.3767 11.166 15.3769 11.1658 15.3771C11.1656 15.3772 11.1653 15.3772 11.1649 15.3774C10.5775 15.6808 9.82239 15.5655 9.35683 15.012L9.97633 14.3976C10.2191 14.4094 10.7404 14.4216 11.922 14.4341C11.8196 14.8352 11.5506 15.18 11.1664 15.3767ZM7.75558 15.4851L5.90439 15.9562L6.38946 14.1463L6.61389 13.9236L7.97477 15.2674L7.75558 15.4851ZM8.05033 12.5109C8.13546 13.1346 8.56427 13.8482 9.05552 14.1956L8.50727 14.7394L7.14639 13.3956C8.19864 12.3517 7.92396 12.618 8.05033 12.5109ZM11.8421 15.8332C12.2929 15.4924 12.5942 14.9968 12.6874 14.442L14.3211 14.4583C14.506 14.8864 14.6687 15.3911 14.4563 15.8066C13.8733 16.8712 12.4348 16.8551 11.8421 15.8332ZM15.2906 15.6671C15.349 15.2893 15.2584 14.8101 15.1318 14.4501C15.3763 14.4457 16.6307 14.9994 16.8771 15.1069C16.4458 15.4177 15.789 15.6448 15.2906 15.6671ZM18.3806 2.21118L19.7835 3.55274C15.8537 7.45087 17.2453 6.07274 13.3142 9.9718C12.8616 9.9943 11.4671 10.0669 10.4171 10.1514C11.4844 9.09262 9.78396 10.7867 18.3806 2.21118ZM7.49627 10.9584C8.60571 9.63562 11.0216 5.28787 12.117 5.28787C12.3988 5.28787 13.2302 5.40187 13.9056 5.61599C9.45377 10.0569 11.9271 7.5973 5.78964 13.6851C5.69533 13.7784 5.67639 13.9102 5.64246 14.037C5.46171 13.7781 5.29464 13.3804 5.48064 12.9167C5.80483 12.1084 6.90958 11.6586 7.49627 10.9584Z" fill="#A8B4B9" stroke="#A8B4B9" stroke-width="0.2"/>
</svg>