<svg xmlns="http://www.w3.org/2000/svg" width="24" height="24" viewBox="0 0 24 24" fill="none">
  <path d="M16.752 4.92L16.992 4.224C17.088 3.984 16.968 3.696 16.704 3.624C16.464 3.528 16.176 3.672 16.104 3.912L15.84 4.584C12.744 3.744 9.45599 5.376 8.32799 8.4L6.76799 12.672L3.88799 13.992C3.50399 14.16 3.52799 14.712 3.93599 14.856L9.11999 16.752C8.90399 17.976 9.59999 19.2 10.8 19.632C12 20.064 13.344 19.56 13.968 18.504L19.2 20.376C19.44 20.472 19.728 20.352 19.824 20.088C19.872 19.944 19.848 19.8 19.776 19.68L18.456 16.872L20.016 12.6C21.144 9.576 19.68 6.24 16.752 4.92ZM11.16 18.744C10.44 18.48 10.008 17.808 10.056 17.088L13.08 18.168C12.648 18.744 11.856 18.984 11.16 18.744ZM19.128 12.288L17.496 16.728C17.448 16.848 17.448 16.968 17.52 17.088L18.456 19.08L13.92 17.472L9.86399 16.008L5.32799 14.376L7.34399 13.44C7.46399 13.392 7.53599 13.296 7.58399 13.176L9.21599 8.736C10.2 6.048 13.224 4.656 15.96 5.616C18.696 6.6 20.112 9.6 19.128 12.288Z" fill="#A8B4B9" stroke="#A8B4B9" stroke-width="0.2"/>
</svg>