<svg xmlns="http://www.w3.org/2000/svg" width="24" height="24" viewBox="0 0 24 24" fill="none">
  <path d="M3.74982 1.5V22.4989H14.2903C14.6749 22.4992 15.0543 22.41 15.3985 22.2384C15.7427 22.0668 16.0423 21.8175 16.2736 21.5102L20.249 16.2224V1.5H3.74982ZM4.49978 2.24996H19.499V15.862L14.2449 18.2892C14.2996 18.2885 14.3544 18.2905 14.4089 18.295C14.4119 18.295 14.4148 18.295 14.4177 18.295C14.4216 18.2955 14.4255 18.296 14.4294 18.2965C14.862 18.3383 15.263 18.5413 15.5527 18.8652C15.8424 19.1892 15.9995 19.6103 15.9929 20.0448C15.9862 20.4794 15.8163 20.8955 15.5168 21.2104C15.2174 21.5253 14.8104 21.716 14.3767 21.7446C14.3718 21.7451 14.3669 21.7455 14.3621 21.746C14.3382 21.7475 14.3142 21.7485 14.2903 21.7489H4.49978V2.24996ZM18.6743 17.069L16.7408 19.6382C16.7283 19.5569 16.7116 19.4762 16.691 19.3965C16.691 19.396 16.691 19.3956 16.691 19.3951C16.6854 19.3764 16.6795 19.3579 16.6735 19.3394C16.6342 19.1994 16.5828 19.0632 16.5197 18.9322C16.5192 18.9317 16.5187 18.9312 16.5182 18.9307C16.4823 18.8565 16.4427 18.7842 16.3995 18.7139C16.3123 18.5734 16.2112 18.4418 16.0978 18.3214C16.0843 18.3071 16.0706 18.2929 16.0568 18.2789L18.6743 17.069Z" fill="#A8B4B9" stroke="#A8B4B9" stroke-width="0.2"/>
  <path d="M14.8666 6.52404C14.7381 6.5315 14.6169 6.58658 14.5269 6.67853C14.4368 6.77048 14.3842 6.8927 14.3794 7.02133L14.3309 7.87845L13.4838 7.8926C13.4122 7.8874 13.3403 7.89716 13.2727 7.92127C13.205 7.94537 13.1431 7.98328 13.0909 8.03259C13.0387 8.08191 12.9974 8.14154 12.9695 8.20771C12.9416 8.27388 12.9277 8.34512 12.9289 8.41692C12.93 8.48872 12.946 8.5595 12.976 8.62476C13.006 8.69002 13.0492 8.74833 13.1029 8.79598C13.1566 8.84363 13.2197 8.87959 13.288 8.90155C13.3564 8.92352 13.4286 8.93102 13.5 8.92358L14.2743 8.91145L14.2177 9.91008C14.2087 9.98043 14.2143 10.0519 14.2341 10.1199C14.254 10.188 14.2876 10.2513 14.3329 10.3059C14.3782 10.3604 14.4342 10.4051 14.4974 10.4371C14.5607 10.4691 14.6299 10.4878 14.7007 10.492C14.7715 10.4961 14.8424 10.4857 14.909 10.4613C14.9756 10.437 15.0364 10.3992 15.0878 10.3503C15.1392 10.3014 15.18 10.2425 15.2076 10.1772C15.2353 10.1119 15.2493 10.0416 15.2486 9.97072L15.3093 8.89325L16.2513 8.87708C16.3229 8.88228 16.3948 8.87252 16.4625 8.84842C16.5301 8.82432 16.592 8.78641 16.6442 8.73709C16.6964 8.68778 16.7378 8.62814 16.7657 8.56198C16.7936 8.49581 16.8074 8.42456 16.8063 8.35276C16.8051 8.28096 16.7891 8.21018 16.7591 8.14493C16.7292 8.07967 16.6859 8.02136 16.6322 7.97371C16.5785 7.92605 16.5155 7.8901 16.4471 7.86813C16.3787 7.84617 16.3065 7.83867 16.2351 7.84611L15.3659 7.86026L15.4103 7.08197C15.4162 7.00843 15.4063 6.93447 15.3812 6.86508C15.3562 6.79568 15.3166 6.73244 15.2651 6.67961C15.2136 6.62677 15.1514 6.58555 15.0826 6.55872C15.0139 6.53189 14.9402 6.52006 14.8666 6.52404ZM11.6766 7.04154C11.6577 7.04118 11.6388 7.04186 11.62 7.04357C11.5453 7.05126 11.4731 7.07514 11.4085 7.11354C11.3439 7.15194 11.2885 7.20394 11.246 7.26593C11.246 7.26593 10.9863 7.64868 10.6881 8.12103C10.3899 8.59343 10.0576 9.12524 9.89362 9.57248C9.82581 9.75752 9.31993 10.6444 8.86265 11.3615C8.40537 12.0787 7.9752 12.7058 7.9752 12.7058C7.93482 12.7624 7.90619 12.8266 7.89102 12.8944C7.87584 12.9623 7.87443 13.0325 7.88685 13.1009C7.89928 13.1694 7.9253 13.2346 7.96337 13.2928C8.00144 13.351 8.05079 13.4009 8.1085 13.4397C8.16622 13.4785 8.23112 13.5053 8.29938 13.5186C8.36764 13.5319 8.43787 13.5314 8.50591 13.517C8.57396 13.5027 8.63844 13.4749 8.69555 13.4352C8.75265 13.3955 8.80122 13.3448 8.83839 13.286C8.83839 13.286 9.23631 12.6846 9.647 12.0448C9.74096 12.0291 10.3549 11.9269 11.0701 11.7881C11.4541 11.7137 11.8364 11.634 12.1395 11.5596C12.1718 11.5513 12.1939 11.545 12.2244 11.5374C12.5451 12.3878 12.9475 13.178 13.5526 13.6519C13.6059 13.6967 13.6677 13.7303 13.7343 13.7507C13.8009 13.771 13.8709 13.7777 13.9401 13.7704C14.0094 13.7631 14.0764 13.7418 14.1373 13.708C14.1981 13.6741 14.2515 13.6283 14.2942 13.5733C14.337 13.5184 14.3682 13.4553 14.386 13.388C14.4038 13.3207 14.4078 13.2504 14.3978 13.1815C14.3878 13.1126 14.364 13.0464 14.3279 12.9869C14.2917 12.9274 14.2439 12.8758 14.1873 12.8352C13.7349 12.4808 13.1182 11.1008 12.752 9.84741C12.3859 8.59401 12.186 7.47213 12.186 7.47213C12.1655 7.35181 12.1031 7.24262 12.0099 7.16383C11.9167 7.08504 11.7987 7.04173 11.6766 7.04154ZM11.4522 8.86293C11.5518 9.32371 11.5604 9.46387 11.7575 10.1385C11.7981 10.2775 11.8458 10.4197 11.8889 10.561C11.6184 10.6272 11.2453 10.7009 10.872 10.7733C10.6298 10.8202 10.6053 10.8224 10.3889 10.8622C10.5961 10.5135 10.7687 10.192 10.864 9.93232C10.9404 9.72381 11.2069 9.26597 11.4522 8.86293Z" fill="#A8B4B9" stroke="#A8B4B9" stroke-width="0.2"/>
</svg>